<?xml version="1.0" encoding="UTF-8" standalone="no"?>
<!-- Created with Inkscape (http://www.inkscape.org/) -->

<svg
   xmlns:dc="http://purl.org/dc/elements/1.1/"
   xmlns:cc="http://creativecommons.org/ns#"
   xmlns:rdf="http://www.w3.org/1999/02/22-rdf-syntax-ns#"
   xmlns:svg="http://www.w3.org/2000/svg"
   xmlns="http://www.w3.org/2000/svg"
   xmlns:xlink="http://www.w3.org/1999/xlink"
   xmlns:sodipodi="http://sodipodi.sourceforge.net/DTD/sodipodi-0.dtd"
   xmlns:inkscape="http://www.inkscape.org/namespaces/inkscape"
   id="svg4909"
   sodipodi:docname="Camera-Lens.svg"
   inkscape:export-filename="camera_lens.png"
   viewBox="0 0 463.08 463.08"
   sodipodi:version="0.32"
   inkscape:export-xdpi="9.3288412"
   version="1.0"
   inkscape:output_extension="org.inkscape.output.svg.inkscape"
   inkscape:export-ydpi="9.3288412"
   inkscape:version="0.48.5 r10040"
   width="100%"
   height="100%">
  <defs
     id="defs3">
    <linearGradient
       id="linearGradient5887"
       inkscape:collect="always">
      <stop
         id="stop5889"
         style="stop-color:#cdd0ce"
         offset="0" />
      <stop
         id="stop5891"
         style="stop-color:#cdd0ce;stop-opacity:0"
         offset="1" />
    </linearGradient>
    <linearGradient
       id="linearGradient5639">
      <stop
         id="stop5641"
         style="stop-color:#aed3ff"
         offset="0" />
      <stop
         id="stop5643"
         style="stop-color:#d6e9ff;stop-opacity:.13245"
         offset=".21015" />
      <stop
         id="stop5647"
         style="stop-color:#c2deff;stop-opacity:.13245"
         offset=".77785" />
      <stop
         id="stop5645"
         style="stop-color:#aed3ff"
         offset="1" />
    </linearGradient>
    <filter
       id="filter5590"
       inkscape:collect="always">
      <feGaussianBlur
         id="feGaussianBlur5592"
         stdDeviation="0.81070223"
         inkscape:collect="always" />
    </filter>
    <filter
       id="filter5827"
       inkscape:collect="always">
      <feGaussianBlur
         id="feGaussianBlur5829"
         stdDeviation="1.0174043"
         inkscape:collect="always" />
    </filter>
    <linearGradient
       id="linearGradient5957"
       y2="305.11"
       gradientUnits="userSpaceOnUse"
       x2="-143.59"
       gradientTransform="translate(427.84 138.77)"
       y1="345.38"
       x1="-150.34"
       inkscape:collect="always">
      <stop
         id="stop5771"
         style="stop-color:#89269d"
         offset="0" />
      <stop
         id="stop5777"
         style="stop-color:#a40000"
         offset=".33681" />
      <stop
         id="stop5773"
         style="stop-color:#89269d;stop-opacity:0"
         offset="1" />
    </linearGradient>
    <radialGradient
       id="radialGradient5961"
       gradientUnits="userSpaceOnUse"
       cy="337.36"
       cx="-167"
       gradientTransform="matrix(1.3393 0 0 1.1719 495.16 127.69)"
       r="56"
       inkscape:collect="always">
      <stop
         id="stop5610"
         style="stop-color:#042b76"
         offset="0" />
      <stop
         id="stop5612"
         style="stop-color:#2e75f8"
         offset="1" />
    </radialGradient>
    <linearGradient
       id="linearGradient5965"
       y2="165.88"
       gradientUnits="userSpaceOnUse"
       x2="-175.16"
       gradientTransform="matrix(1.2614 0 0 1.2614 473.02 129.31)"
       y1="76.875"
       x1="-182.84"
       inkscape:collect="always">
      <stop
         id="stop5623"
         style="stop-color:#2a5e89"
         offset="0" />
      <stop
         id="stop5625"
         style="stop-color:#2a5e89;stop-opacity:0"
         offset="1" />
    </linearGradient>
    <radialGradient
       id="radialGradient5971"
       gradientUnits="userSpaceOnUse"
       cy="127.88"
       cx="81.5"
       gradientTransform="matrix(1.5048 .23121 -.16112 1.0486 317.46 104.94)"
       r="231.54"
       inkscape:collect="always">
      <stop
         id="stop5506"
         style="stop-color:#acacac"
         offset="0" />
      <stop
         id="stop5508"
         style="stop-color:#000000"
         offset="1" />
    </radialGradient>
    <linearGradient
       id="linearGradient5974"
       y2="233.88"
       gradientUnits="userSpaceOnUse"
       x2="47.811"
       gradientTransform="matrix(0 1 -1 0 511.38 554.38)"
       y1="233.88"
       x1="-356.81"
       inkscape:collect="always">
      <stop
         id="stop5528"
         style="stop-color:#000000"
         offset="0" />
      <stop
         id="stop5530"
         style="stop-color:#ffffff;stop-opacity:.99608"
         offset="1" />
    </linearGradient>
    <linearGradient
       id="linearGradient5989"
       y2="-191.78"
       xlink:href="#linearGradient5887"
       spreadMethod="reflect"
       gradientUnits="userSpaceOnUse"
       x2="-807.77"
       y1="-119.64"
       x1="-838.19"
       inkscape:collect="always" />
    <linearGradient
       id="linearGradient5991"
       y2="249.36"
       xlink:href="#linearGradient5639"
       gradientUnits="userSpaceOnUse"
       x2="22.886"
       y1="249.36"
       x1="-228.89"
       inkscape:collect="always" />
    <linearGradient
       id="linearGradient5993"
       y2="245.86"
       gradientUnits="userSpaceOnUse"
       x2="-149.5"
       y1="245.86"
       x1="-210.09"
       inkscape:collect="always">
      <stop
         id="stop5556"
         style="stop-color:#ffffff"
         offset="0" />
      <stop
         id="stop5558"
         style="stop-color:#ffffff;stop-opacity:.037931"
         offset="1" />
    </linearGradient>
    <linearGradient
       id="linearGradient5995"
       y2="249.55"
       gradientUnits="userSpaceOnUse"
       x2="-164.83"
       y1="245.86"
       x1="-210.09"
       inkscape:collect="always">
      <stop
         id="stop5664"
         style="stop-color:#ffffff"
         offset="0" />
      <stop
         id="stop5666"
         style="stop-color:#ffffff;stop-opacity:.053137"
         offset="1" />
    </linearGradient>
    <linearGradient
       id="linearGradient5999"
       y2="-89.638"
       gradientUnits="userSpaceOnUse"
       x2="-145.56"
       y1="-47.638"
       x1="-153"
       inkscape:collect="always">
      <stop
         id="stop5783"
         style="stop-color:#2ad4ff"
         offset="0" />
      <stop
         id="stop5785"
         style="stop-color:#2ad4ff;stop-opacity:0"
         offset="1" />
    </linearGradient>
  </defs>
  <sodipodi:namedview
     id="base"
     bordercolor="#666666"
     inkscape:pageshadow="2"
     inkscape:window-y="32"
     pagecolor="#ffffff"
     inkscape:window-height="944"
     inkscape:zoom="0.5"
     inkscape:window-x="-1"
     showgrid="false"
     borderopacity="1.0"
     inkscape:current-layer="layer1"
     inkscape:cx="232.80624"
     inkscape:cy="266.32648"
     inkscape:window-width="1272"
     inkscape:pageopacity="0.0"
     inkscape:document-units="mm"
     inkscape:window-maximized="0" />
  <g
     id="layer1"
     inkscape:label="Layer 1"
     inkscape:groupmode="layer"
     transform="translate(-45.961 -168.34)">
    <path
       id="path4987"
       sodipodi:rx="187"
       sodipodi:ry="187"
       style="stroke-linejoin:round;stroke:#000000;stroke-linecap:round;stroke-width:3.5433;fill:#212121"
       sodipodi:type="arc"
       d="m 483,326.36218 c 0,103.27725 -83.72275,187 -187,187 -103.27725,0 -187,-83.72275 -187,-187 0,-103.27725 83.72275,-187 187,-187 103.27725,0 187,83.72275 187,187 z"
       transform="translate(-18.5 73.514)"
       sodipodi:cy="326.36218"
       sodipodi:cx="296" />
    <path
       id="path5514"
       style="stroke-linejoin:round;stroke:url(#linearGradient5974);stroke-linecap:round;stroke-width:3.0725;fill:#a3a3a3"
       d="m478.27 399.88c0-110.63-90.14-200.78-200.77-200.78s-200.78 90.15-200.78 200.78c0.005 110.62 90.15 200.77 200.78 200.77s200.77-90.15 200.77-200.77zm-36.87 0c0 90.67-73.22 163.9-163.9 163.9s-163.9-73.23-163.9-163.9c0-90.68 73.22-163.91 163.9-163.91s163.9 73.23 163.9 163.91z" />
    <path
       id="path4989"
       style="fill:url(#radialGradient5971)"
       d="m277.5 168.34c-127.58 0-231.54 103.96-231.54 231.54 0.001 127.57 103.96 231.54 231.54 231.54s231.54-103.97 231.54-231.54c0-127.58-103.96-231.54-231.54-231.54zm0 42.52c104.57 0 189.02 84.45 189.02 189.02s-84.45 189.02-189.02 189.02-189.02-84.45-189.02-189.02 84.45-189.02 189.02-189.02z" />
    <path
       id="path5538"
       sodipodi:rx="125"
       sodipodi:ry="125"
       style="stroke-linejoin:round;stroke:url(#linearGradient5991);stroke-linecap:round;stroke-width:1.7717;fill:none"
       sodipodi:type="arc"
       d="m 22,249.36218 c 0,69.0356 -55.964406,125 -125,125 -69.03559,0 -125,-55.9644 -125,-125 0,-69.03559 55.96441,-125 125,-125 69.035594,0 125,55.96441 125,125 z"
       transform="matrix(0 -1 1 0 28.138 296.88)"
       sodipodi:cy="249.36218"
       sodipodi:cx="-103" />
    <path
       id="path5552"
       sodipodi:rx="53.5"
       sodipodi:ry="51.5"
       style="stroke-linejoin:round;filter:url(#filter5590);stroke:url(#linearGradient5993);stroke-linecap:round;stroke-width:8.8583;fill:none"
       sodipodi:type="arc"
       d="m -96,245.86218 c 0,28.44267 -23.95277,51.5 -53.5,51.5 -29.54723,0 -53.5,-23.05733 -53.5,-51.5 0,-28.44266 23.95277,-51.5 53.5,-51.5 29.54723,0 53.5,23.05734 53.5,51.5 z"
       transform="matrix(0 1 -1 0 523.36 549.38)"
       sodipodi:cy="245.86218"
       sodipodi:cx="-149.5" />
    <path
       id="path5594"
       sodipodi:rx="53.5"
       sodipodi:ry="51.5"
       style="opacity:.55517;stroke-linejoin:round;stroke:url(#linearGradient5995);stroke-linecap:round;stroke-width:4.7956;fill:none"
       sodipodi:type="arc"
       d="m -96,245.86218 c 0,28.44267 -23.95277,51.5 -53.5,51.5 -29.54723,0 -53.5,-23.05733 -53.5,-51.5 0,-28.44266 23.95277,-51.5 53.5,-51.5 29.54723,0 53.5,23.05734 53.5,51.5 z"
       transform="matrix(0 1.3049 -1.3555 0 610.78 594.96)"
       sodipodi:cy="245.86218"
       sodipodi:cx="-149.5" />
    <path
       id="path5616"
       style="fill:url(#linearGradient5965)"
       d="m277.5 235.74c-69.05 0-126.98 47.9-142.34 112.27h284.68c-15.36-64.37-73.29-112.27-142.34-112.27z" />
    <path
       id="path5649"
       sodipodi:rx="125"
       sodipodi:ry="125"
       style="stroke-linejoin:round;stroke:url(#linearGradient5991);stroke-linecap:round;stroke-width:1.7717;fill:none"
       sodipodi:type="arc"
       d="m 22,249.36218 c 0,69.0356 -55.964406,125 -125,125 -69.03559,0 -125,-55.9644 -125,-125 0,-69.03559 55.96441,-125 125,-125 69.035594,0 125,55.96441 125,125 z"
       transform="matrix(0 -.86893 .86893 0 60.822 310.38)"
       sodipodi:cy="249.36218"
       sodipodi:cx="-103" />
    <path
       id="path5598"
       style="opacity:.34138;fill:url(#radialGradient5961)"
       d="m271.5 457.42c-41.4 0-75 29.4-75 65.63 0 6.58 1.13 12.91 3.19 18.9 23.49 12.99 50.51 20.38 79.31 20.38 21.35 0 41.72-4.05 60.41-11.44 4.54-8.45 7.09-17.89 7.09-27.84 0-36.23-33.6-65.63-75-65.63z" />
    <path
       id="path5660"
       sodipodi:rx="39"
       sodipodi:ry="21"
       style="opacity:.38380;fill:#5fd3bc"
       sodipodi:type="arc"
       d="m -114,-68.637817 c 0,11.597979 -17.46089,21 -39,21 -21.53911,0 -39,-9.402021 -39,-21 0,-11.59798 17.46089,-21 39,-21 21.53911,0 39,9.40202 39,21 z"
       transform="translate(430.5 404.51)"
       sodipodi:cy="-68.637817"
       sodipodi:cx="-153" />
    <path
       id="rect5762"
       style="opacity:.92759;fill:url(#linearGradient5957)"
       d="m300.01 403.61l-46.94 1.16-9.32 73c9.52 4.04 20.63 6.37 32.5 6.37 12.92 0 24.95-2.77 35-7.49l-11.24-73.04z" />
    <path
       id="path5779"
       sodipodi:rx="39"
       sodipodi:ry="21"
       style="opacity:.38380;fill:url(#linearGradient5999)"
       sodipodi:type="arc"
       d="m -114,-68.637817 c 0,11.597979 -17.46089,21 -39,21 -21.53911,0 -39,-9.402021 -39,-21 0,-11.59798 17.46089,-21 39,-21 21.53911,0 39,9.40202 39,21 z"
       transform="matrix(1.6795 0 0 1 535.96 383.51)"
       sodipodi:cy="-68.637817"
       sodipodi:cx="-153" />
    <path
       id="text5869"
       style="fill:#e6e6e6"
       d="m64.548 410.36l1.656-0.16c-0.439 0.57-0.75 1.18-0.933 1.8s-0.241 1.27-0.173 1.94c0.134 1.33 0.643 2.3 1.527 2.93 0.88 0.62 2.087 0.85 3.621 0.7 1.528-0.16 2.664-0.63 3.406-1.41 0.738-0.79 1.039-1.85 0.906-3.17-0.068-0.68-0.254-1.3-0.558-1.87-0.304-0.58-0.729-1.1-1.275-1.58l1.641-0.17c0.428 0.51 0.767 1.07 1.015 1.67 0.249 0.59 0.407 1.23 0.476 1.91 0.177 1.76-0.219 3.2-1.19 4.31-0.976 1.12-2.394 1.78-4.254 1.96-1.866 0.19-3.386-0.16-4.561-1.07-1.179-0.9-1.858-2.23-2.035-3.98-0.07-0.7-0.043-1.36 0.082-1.99 0.119-0.64 0.336-1.24 0.649-1.82m0.277-6.96l5.896 1.87-0.196-4.28-5.7 2.41m-1.513 0.96l-0.081-1.79 11.449-4.97 0.074 1.64-2.94 1.2 0.24 5.25 3.038 0.92 0.076 1.67-11.856-3.92m-0.299-8.59l0.025-2.13 9.817-5.06-9.758-0.11 0.018-1.53 11.663 0.13-0.024 2.13-9.817 5.06 9.757 0.11-0.017 1.53-11.664-0.13m0.261-12.67l0.152-2.12 10.103-4.46-9.733-0.7 0.109-1.53 11.635 0.84-0.152 2.12-10.103 4.46 9.733 0.7-0.11 1.52-11.634-0.83m2.707-17.2c-0.153 1.14 0.149 2.1 0.906 2.88s1.866 1.27 3.327 1.46c1.456 0.2 2.652 0.02 3.588-0.53 0.936-0.56 1.481-1.41 1.633-2.54 0.152-1.14-0.151-2.09-0.909-2.87-0.757-0.78-1.863-1.26-3.319-1.46-1.461-0.19-2.659-0.02-3.595 0.54-0.935 0.54-1.479 1.38-1.631 2.52m-1.27-0.17c0.217-1.62 0.935-2.84 2.155-3.67 1.214-0.82 2.735-1.11 4.562-0.87 1.822 0.25 3.213 0.93 4.172 2.04 0.954 1.12 1.322 2.49 1.105 4.11-0.218 1.62-0.935 2.85-2.149 3.68-1.215 0.83-2.735 1.12-4.563 0.87-1.827-0.24-3.218-0.92-4.172-2.04-0.958-1.12-1.328-2.49-1.11-4.12m1.477-8.46l0.412-2.08 10.575-3.19-9.573-1.89 0.297-1.5 11.443 2.26-0.412 2.09-10.575 3.18 9.572 1.89-0.296 1.5-11.443-2.26m3.705-16.96l2.516-8.81 1.156 0.33 6.757 9.6 2.075-7.26 1.277 0.36-2.615 9.16-1.157-0.33-6.757-9.6-1.975 6.92-1.277-0.37m6.046-15.94c-0.379 1.08-0.277 2.08 0.305 3 0.584 0.92 1.571 1.62 2.962 2.11 1.386 0.48 2.594 0.55 3.622 0.2 1.03-0.36 1.734-1.08 2.113-2.16s0.276-2.08-0.31-2.99c-0.584-0.91-1.569-1.61-2.955-2.1-1.391-0.49-2.601-0.56-3.629-0.2-1.026 0.34-1.729 1.06-2.108 2.14m-1.209-0.43c0.541-1.54 1.491-2.59 2.852-3.15 1.356-0.56 2.904-0.54 4.644 0.07 1.735 0.61 2.96 1.55 3.673 2.84 0.708 1.29 0.792 2.7 0.251 4.25-0.542 1.54-1.492 2.6-2.85 3.17-1.356 0.56-2.904 0.54-4.644-0.07s-2.964-1.56-3.673-2.84c-0.711-1.3-0.796-2.72-0.253-4.27m5.984-11.94c-0.446 1.06-0.408 2.06 0.116 3.02 0.525 0.95 1.466 1.71 2.824 2.29 1.353 0.57 2.554 0.71 3.602 0.42 1.05-0.29 1.799-0.96 2.245-2.02 0.445-1.05 0.405-2.05-0.123-3-0.525-0.95-1.464-1.71-2.817-2.28-1.358-0.58-2.561-0.72-3.609-0.43-1.046 0.28-1.792 0.95-2.238 2m-1.181-0.5c0.637-1.5 1.652-2.49 3.045-2.97 1.389-0.47 2.932-0.35 4.631 0.36 1.693 0.72 2.856 1.74 3.487 3.07 0.626 1.33 0.621 2.75-0.015 4.25-0.639 1.51-1.653 2.51-3.044 2.99-1.389 0.48-2.932 0.36-4.631-0.36-1.698-0.72-2.86-1.74-3.487-3.07-0.629-1.33-0.624-2.76 0.014-4.27m3.652-7.82l1.055-2.1 8.429 0.9-5.751-6.23 1.055-2.11 10.424 5.24-0.69 1.37-9.154-4.59 5.8 6.28-0.711 1.41-8.499-0.9 9.153 4.6-0.687 1.37-10.424-5.24m9.328-17.52l0.821-1.35 8.826 5.37 2.96-4.85 1.13 0.69-3.77 6.2-9.967-6.06m4.977-8.04l4.13-6.11 1.1 0.74-3.246 4.81 2.866 1.93 3.1-4.61 1.1 0.75-3.1 4.6 3.5 2.36 3.32-4.92 1.1 0.75-4.2 6.23-9.67-6.53m6.08-8.88l1.29-1.69 10.9 1.77-7.78-5.89 0.92-1.22 9.3 7.04-1.28 1.69-10.9-1.77 7.78 5.89-0.93 1.23-9.3-7.05m12.53-15.06l1.17 1c-0.6 0.27-1.13 0.56-1.58 0.88-0.45 0.31-0.84 0.66-1.16 1.04-0.55 0.65-0.86 1.27-0.9 1.84-0.05 0.57 0.16 1.05 0.63 1.45 0.39 0.33 0.79 0.47 1.19 0.41 0.4-0.07 0.94-0.39 1.63-0.94l0.76-0.6c0.93-0.76 1.8-1.16 2.59-1.22 0.79-0.07 1.55 0.21 2.27 0.82 0.87 0.73 1.27 1.57 1.23 2.53-0.05 0.95-0.54 1.99-1.49 3.11-0.35 0.42-0.78 0.83-1.28 1.22s-1.05 0.76-1.67 1.12l-1.24-1.05c0.69-0.26 1.3-0.57 1.84-0.92 0.53-0.35 0.99-0.75 1.38-1.2 0.58-0.69 0.89-1.34 0.94-1.94s-0.18-1.11-0.68-1.54c-0.44-0.37-0.9-0.52-1.37-0.46s-1.03 0.34-1.67 0.85l-0.77 0.61c-0.93 0.75-1.77 1.16-2.49 1.24s-1.42-0.17-2.1-0.75c-0.79-0.67-1.17-1.47-1.16-2.4 0.02-0.94 0.44-1.9 1.27-2.87 0.35-0.42 0.75-0.81 1.19-1.18s0.93-0.72 1.47-1.05m9.99-9.21l1.64 7.2 2.79-2.83-4.43-4.37m-1.27-0.67l1.39-1.42 5.42 5.34 1.16-1.19 0.94 0.92-1.17 1.19 1.96 1.93-1.1 1.12-1.96-1.93-3.7 3.75-1.08-1.07-1.86-8.64m12.04-7.44l0.56 5.27 5.49 1.05-1.25 1.15-4.2-0.8 0.46 4.25-1.25 1.15-0.6-5.67-5.11-0.96 1.24-1.15 3.82 0.72-0.4-3.86 1.24-1.15" />
    <path
       id="path5885"
       sodipodi:rx="212"
       sodipodi:ry="212"
       style="opacity:.67606;stroke-linejoin:round;stroke:url(#linearGradient5989);stroke-linecap:round;stroke-width:.37938;fill:none"
       sodipodi:type="arc"
       d="m -414,-119.63782 c 0,117.0843696 -94.91563,212.000003 -212,212.000003 -117.08437,0 -212,-94.9156334 -212,-212.000003 0,-117.08436 94.91563,-212 212,-212 117.08437,0 212,94.91564 212,212 z"
       transform="matrix(.87231 0 0 .87231 823.57 506.11)"
       sodipodi:cy="-119.63782"
       sodipodi:cx="-626" />
    <path
       id="path5895"
       sodipodi:rx="212"
       sodipodi:ry="212"
       style="opacity:.67606;stroke-linejoin:round;stroke:url(#linearGradient5989);stroke-linecap:round;stroke-width:.37938;fill:none"
       sodipodi:type="arc"
       d="m -414,-119.63782 c 0,117.0843696 -94.91563,212.000003 -212,212.000003 -117.08437,0 -212,-94.9156334 -212,-212.000003 0,-117.08436 94.91563,-212 212,-212 117.08437,0 212,94.91564 212,212 z"
       transform="matrix(.85351 .077215 -.077215 .85351 799.31 555.44)"
       sodipodi:cy="-119.63782"
       sodipodi:cx="-626" />
    <path
       id="path5903"
       style="stroke-linejoin:round;stroke:#000000;stroke-linecap:round;stroke-width:3.5433;fill:none"
       d="m275.5 211.84c-104.57 0-189.03 84.46-189.03 189.04-0.001 104.57 84.46 189.03 189.03 189.03s189.03-84.46 189.03-189.03c0-104.58-84.46-189.04-189.03-189.04z" />
    <path
       id="path5831"
       style="opacity:.67606;filter:url(#filter5827);fill:#ff7f2a"
       sodipodi:type="star"
       d="m -137,243.36218 -21.62436,9.45449 -19,-14 2.62436,-23.45449 21.62436,-9.45448 19,14 z"
       sodipodi:r1="23.600847"
       inkscape:flatsided="true"
       transform="matrix(.63005 0 0 .54478 371.29 255.09)"
       sodipodi:arg2="1.1586255"
       sodipodi:arg1="0.63502674"
       inkscape:randomized="0"
       sodipodi:cy="229.36218"
       sodipodi:cx="-156"
       inkscape:rounded="0"
       sodipodi:r2="11.800423"
       sodipodi:sides="6" />
    <path
       id="path5789"
       style="opacity:.67606;filter:url(#filter5827);fill:#636667"
       sodipodi:type="star"
       sodipodi:sides="6"
       sodipodi:r1="23.600847"
       sodipodi:r2="11.800423"
       sodipodi:arg1="0.63502674"
       sodipodi:arg2="1.1586255"
       transform="matrix(.79190 0 0 .79190 414.23 209.03)"
       inkscape:randomized="0"
       sodipodi:cy="229.36218"
       sodipodi:cx="-156"
       inkscape:rounded="0"
       inkscape:flatsided="true"
       d="m -137,243.36218 -21.62436,9.45449 -19,-14 2.62436,-23.45449 21.62436,-9.45448 19,14 z" />
    <path
       id="path5987"
       sodipodi:rx="212"
       sodipodi:ry="212"
       style="opacity:.67606;stroke-linejoin:round;stroke:url(#linearGradient5989);stroke-linecap:round;stroke-width:.37938;fill:none"
       sodipodi:type="arc"
       d="m -414,-119.63782 c 0,117.0843696 -94.91563,212.000003 -212,212.000003 -117.08437,0 -212,-94.9156334 -212,-212.000003 0,-117.08436 94.91563,-212 212,-212 117.08437,0 212,94.91564 212,212 z"
       transform="matrix(.83843 .12016 -.12016 .83843 782.61 582.64)"
       sodipodi:cy="-119.63782"
       sodipodi:cx="-626" />
  </g>
  <metadata
     id="metadata64">
    <rdf:RDF>
      <cc:Work>
        <dc:format>image/svg+xml</dc:format>
        <dc:type
           rdf:resource="http://purl.org/dc/dcmitype/StillImage" />
        <cc:license
           rdf:resource="http://creativecommons.org/licenses/publicdomain/" />
        <dc:publisher>
          <cc:Agent
             rdf:about="http://openclipart.org/">
            <dc:title>Openclipart</dc:title>
          </cc:Agent>
        </dc:publisher>
        <dc:title>Camera Lens</dc:title>
        <dc:date>2008-11-19T22:54:22</dc:date>
        <dc:description>Camera lens based in the &quot;The Lens&quot; (see devianart)</dc:description>
        <dc:source>https://openclipart.org/detail/20295/camera-lens-by-rg1024-20295</dc:source>
        <dc:creator>
          <cc:Agent>
            <dc:title>rg1024</dc:title>
          </cc:Agent>
        </dc:creator>
        <dc:subject>
          <rdf:Bag>
            <rdf:li>camera</rdf:li>
            <rdf:li>editorial pick</rdf:li>
            <rdf:li>lens</rdf:li>
          </rdf:Bag>
        </dc:subject>
      </cc:Work>
      <cc:License
         rdf:about="http://creativecommons.org/licenses/publicdomain/">
        <cc:permits
           rdf:resource="http://creativecommons.org/ns#Reproduction" />
        <cc:permits
           rdf:resource="http://creativecommons.org/ns#Distribution" />
        <cc:permits
           rdf:resource="http://creativecommons.org/ns#DerivativeWorks" />
      </cc:License>
    </rdf:RDF>
  </metadata>
</svg>
