<?xml version="1.0" encoding="UTF-8" standalone="no"?>
<!-- Created with Inkscape (http://www.inkscape.org/) -->

<svg
   xmlns:dc="http://purl.org/dc/elements/1.1/"
   xmlns:cc="http://creativecommons.org/ns#"
   xmlns:rdf="http://www.w3.org/1999/02/22-rdf-syntax-ns#"
   xmlns:svg="http://www.w3.org/2000/svg"
   xmlns="http://www.w3.org/2000/svg"
   xmlns:xlink="http://www.w3.org/1999/xlink"
   xmlns:sodipodi="http://sodipodi.sourceforge.net/DTD/sodipodi-0.dtd"
   xmlns:inkscape="http://www.inkscape.org/namespaces/inkscape"
   id="svg6361"
   sodipodi:docname="help-browser.svg"
   viewBox="0 0 48 48"
   sodipodi:version="0.32"
   inkscape:output_extension="org.inkscape.output.svg.inkscape"
   inkscape:version="0.48.5 r10040"
   version="1.1"
   width="100%"
   height="100%"
   inkscape:export-filename="help-browser.png"
   inkscape:export-xdpi="45"
   inkscape:export-ydpi="45">
  <defs
     id="defs3">
    <radialGradient
       id="radialGradient21650"
       gradientUnits="userSpaceOnUse"
       cy="36.75"
       cx="25.125"
       gradientTransform="matrix(1 0 0 .59524 3.3697e-16 14.875)"
       r="15.75"
       inkscape:collect="always">
      <stop
         id="stop21646"
         style="stop-color:#000000"
         offset="0" />
      <stop
         id="stop21648"
         style="stop-color:#000000;stop-opacity:0"
         offset="1" />
    </radialGradient>
    <radialGradient
       id="radialGradient2207"
       gradientUnits="userSpaceOnUse"
       cy="28.459"
       cx="26.544"
       gradientTransform="matrix(1.2383 .0059548 -.0065078 1.3513 -6.9925 -9.7448)"
       r="22.376"
       inkscape:collect="always">
      <stop
         id="stop2935"
         style="stop-color:#9cbcde"
         offset="0" />
      <stop
         id="stop2937"
         style="stop-color:#204a87"
         offset="1" />
    </radialGradient>
    <radialGradient
       id="radialGradient2437"
       gradientUnits="userSpaceOnUse"
       cy="16.856"
       cx="-19.516"
       gradientTransform="matrix(4.446 -8.8526e-16 1.3672e-15 6.8665 67.251 -104.67)"
       r="8.7536"
       inkscape:collect="always">
      <stop
         id="stop2433"
         style="stop-color:#ffffff"
         offset="0" />
      <stop
         id="stop2435"
         style="stop-color:#b8b8b8"
         offset="1" />
    </radialGradient>
  </defs>
  <sodipodi:namedview
     id="base"
     inkscape:showpageshadow="false"
     inkscape:zoom="5.6568542"
     borderopacity="0.15294118"
     inkscape:current-layer="layer1"
     stroke="#204a87"
     inkscape:cy="21.921352"
     fill="#deb887"
     inkscape:grid-bbox="true"
     showgrid="true"
     inkscape:document-units="px"
     bordercolor="#666666"
     inkscape:window-x="0"
     inkscape:guide-bbox="true"
     inkscape:window-y="30"
     inkscape:window-width="1014"
     inkscape:pageopacity="0.0"
     inkscape:pageshadow="2"
     pagecolor="#ffffff"
     inkscape:cx="29.929544"
     showguides="true"
     inkscape:window-height="818"
     inkscape:window-maximized="0">
    <inkscape:grid
       id="GridFromPre046Settings"
       opacity=".12157"
       visible="true"
       color="#7171cd"
       enabled="true"
       originy="0px"
       originx="0px"
       empspacing="10"
       spacingy="1px"
       spacingx="1px"
       empopacity="0.5372549"
       type="xygrid"
       empcolor="#7b7bc3" />
  </sodipodi:namedview>
  <g
     id="layer1"
     inkscape:label="Layer 1"
     inkscape:groupmode="layer">
    <path
       id="path21642"
       sodipodi:rx="15.750000"
       sodipodi:ry="9.3750000"
       style="opacity:.63068;fill-rule:evenodd;color:#000000;fill:url(#radialGradient21650)"
       sodipodi:type="arc"
       d="m40.875 36.75a15.75 9.375 0 1 1 -31.5 0 15.75 9.375 0 1 1 31.5 0z"
       transform="matrix(1.1738 0 0 0.6 -5.0044 20.325)"
       sodipodi:cy="36.750000"
       sodipodi:cx="25.125000" />
    <path
       id="path2093"
       sodipodi:rx="21.876116"
       sodipodi:ry="21.876116"
       style="stroke:#204a87;fill:url(#radialGradient2207)"
       sodipodi:type="arc"
       d="m45.785 23.826a21.876 21.876 0 1 1 -43.752 0 21.876 21.876 0 1 1 43.752 0z"
       transform="matrix(.93844 0 0 .93868 1.5641 1.6339)"
       sodipodi:cy="23.825787"
       sodipodi:cx="23.909048" />
    <path
       id="path2209"
       sodipodi:rx="21.876116"
       sodipodi:ry="21.876116"
       style="opacity:.96023;stroke:#ffffff;stroke-width:3.0308;fill:none"
       sodipodi:type="arc"
       d="m45.785 23.826a21.876 21.876 0 1 1 -43.752 0 21.876 21.876 0 1 1 43.752 0z"
       transform="matrix(.85510 0 0 .85521 3.5553 3.625)"
       sodipodi:cy="23.825787"
       sodipodi:cx="23.909048" />
    <path
       id="path1554"
       style="stroke-opacity:.78613;stroke:#ffffff;stroke-width:1.0995px;fill:url(#radialGradient2437)"
       sodipodi:type="inkscape:offset"
       d="m-20.25 5.875c-1.059 0-2.148 0.1232-3.281 0.3438-1.133 0.2204-2.38 0.5375-3.75 1-0.011-0.0013-0.021-0.0013-0.031 0-0.013 0.0086-0.023 0.0191-0.032 0.0312-0.012 0.0086-0.022 0.0192-0.031 0.0312-0.001 0.0104-0.001 0.0209 0 0.0313-0.001 0.0104-0.001 0.0209 0 0.0313v5.1562c-0.001 0.01-0.001 0.021 0 0.031-0.001 0.011-0.001 0.021 0 0.031 0.009 0.013 0.019 0.023 0.031 0.032 0.009 0.012 0.019 0.022 0.032 0.031 0.01 0.001 0.02 0.001 0.031 0 0.01 0.001 0.021 0.001 0.031 0 0.01 0.001 0.021 0.001 0.031 0 0.011 0.001 0.021 0.001 0.031 0 1.143-0.719 2.234-1.267 3.282-1.625 1.048-0.369 2.043-0.562 2.937-0.562 0.949 0 1.645 0.21 2.157 0.624 0.508 0.403 0.781 0.984 0.781 1.719 0 0.481-0.144 0.952-0.438 1.438-0.283 0.487-0.74 1.03-1.375 1.593l-1.094 0.938c-1.201 1.08-1.989 1.991-2.374 2.719-0.384 0.711-0.563 1.519-0.563 2.437v0.813c-0.001 0.01-0.001 0.021 0 0.031-0.001 0.01-0.001 0.021 0 0.031 0.009 0.012 0.019 0.023 0.031 0.031 0.009 0.013 0.019 0.023 0.032 0.032 0.01 0.001 0.02 0.001 0.031 0 0.01 0.001 0.021 0.001 0.031 0h6.094c0.01 0.001 0.021 0.001 0.031 0 0.01 0.001 0.021 0.001 0.031 0 0.012-0.009 0.023-0.019 0.032-0.032 0.012-0.008 0.022-0.019 0.031-0.031 0.001-0.01 0.001-0.021 0-0.031 0.001-0.01 0.001-0.021 0-0.031v-0.75c0-0.468 0.148-0.893 0.375-1.281 0.222-0.392 0.708-0.951 1.468-1.626l1.063-0.937c1.067-0.982 1.831-1.885 2.281-2.75 0.45-0.874 0.688-1.873 0.688-2.969 0-2.126-0.744-3.7338-2.219-4.8435-1.475-1.121-3.606-1.6875-6.375-1.6875zm-3.562 19.156c-0.013 0.009-0.023 0.019-0.032 0.031-0.012 0.009-0.022 0.02-0.031 0.032-0.001 0.01-0.001 0.021 0 0.031-0.001 0.01-0.001 0.021 0 0.031v5.844c-0.001 0.01-0.001 0.021 0 0.031-0.001 0.011-0.001 0.021 0 0.031 0.009 0.013 0.019 0.023 0.031 0.032 0.009 0.012 0.019 0.022 0.032 0.031 0.01 0.001 0.02 0.001 0.031 0 0.01 0.001 0.021 0.001 0.031 0h6.094c0.01 0.001 0.021 0.001 0.031 0 0.01 0.001 0.021 0.001 0.031 0 0.012-0.009 0.023-0.019 0.032-0.031 0.012-0.009 0.022-0.019 0.031-0.032 0.001-0.01 0.001-0.02 0-0.031 0.001-0.01 0.001-0.021 0-0.031v-5.844c0.001-0.01 0.001-0.021 0-0.031 0.001-0.01 0.001-0.021 0-0.031-0.009-0.012-0.019-0.023-0.031-0.032-0.009-0.012-0.02-0.022-0.032-0.031-0.01-0.001-0.021-0.001-0.031 0-0.01-0.001-0.021-0.001-0.031 0h-6.094c-0.01-0.001-0.021-0.001-0.031 0-0.011-0.001-0.021-0.001-0.031 0z"
       xlink:href="#text2215"
       inkscape:original="M -20.25 6 C -21.298341 6.000026 -22.372769 6.1244771 -23.5 6.34375 C -24.627244 6.563073 -25.886043 6.8832479 -27.25 7.34375 L -27.25 12.5 C -26.100219 11.776335 -24.997109 11.236862 -23.9375 10.875 C -22.877902 10.502213 -21.881822 10.312521 -20.96875 10.3125 C -19.999334 10.312521 -19.259834 10.530174 -18.71875 10.96875 C -18.177686 11.396402 -17.906262 12.013726 -17.90625 12.78125 C -17.906261 13.285654 -18.039408 13.776881 -18.34375 14.28125 C -18.636843 14.785651 -19.107484 15.33609 -19.75 15.90625 L -20.84375 16.84375 C -22.038631 17.918325 -22.815518 18.829509 -23.1875 19.53125 C -23.559495 20.22205 -23.750005 21.007137 -23.75 21.90625 L -23.75 22.71875 L -17.65625 22.71875 L -17.65625 21.96875 C -17.656262 21.475338 -17.517981 21.030712 -17.28125 20.625 C -17.044542 20.208345 -16.547785 19.648586 -15.78125 18.96875 L -14.71875 18.03125 C -13.659161 17.055386 -12.908389 16.156813 -12.46875 15.3125 C -12.029144 14.457253 -11.781268 13.480828 -11.78125 12.40625 C -11.781268 10.311973 -12.525902 8.7417969 -13.96875 7.65625 C -15.41163 6.559783 -17.499549 6.0000261 -20.25 6 z M -23.75 25.15625 L -23.75 31 L -17.65625 31 L -17.65625 25.15625 L -23.75 25.15625 z "
       transform="matrix(.84990 0 0 .83520 41.73 8.5483)"
       inkscape:radius="0.13495015" />
  </g>
  <metadata
     id="metadata20">
    <rdf:RDF>
      <cc:Work>
        <dc:format>image/svg+xml</dc:format>
        <dc:type
           rdf:resource="http://purl.org/dc/dcmitype/StillImage" />
        <cc:license
           rdf:resource="http://creativecommons.org/licenses/publicdomain/" />
        <dc:publisher>
          <cc:Agent
             rdf:about="http://openclipart.org/">
            <dc:title>Openclipart</dc:title>
          </cc:Agent>
        </dc:publisher>
        <dc:title>tango help browser</dc:title>
        <dc:date>2010-03-29T08:02:32</dc:date>
        <dc:description>&quot;Help browser&quot; icon from &lt;a href=&quot;http://tango.freedesktop.org/Tango_Desktop_Project&quot;&gt; Tango Project &lt;/a&gt; \n&lt;br&gt;&lt;br&gt;\nSince version 0.8.90 Tango Project icons are Public Domain: &lt;a href=&quot;http://tango.freedesktop.org/Frequently_Asked_Questions#Terms_of_Use.3F&quot;&gt; Tango Project FAQ &lt;/a&gt;</dc:description>
        <dc:source>https://openclipart.org/detail/35203/tango-help-browser-by-warszawianka</dc:source>
        <dc:creator>
          <cc:Agent>
            <dc:title>warszawianka</dc:title>
          </cc:Agent>
        </dc:creator>
        <dc:subject>
          <rdf:Bag>
            <rdf:li>blue</rdf:li>
            <rdf:li>circle</rdf:li>
            <rdf:li>externalsource</rdf:li>
            <rdf:li>help</rdf:li>
            <rdf:li>icon</rdf:li>
            <rdf:li>question mark</rdf:li>
            <rdf:li>tango</rdf:li>
          </rdf:Bag>
        </dc:subject>
      </cc:Work>
      <cc:License
         rdf:about="http://creativecommons.org/licenses/publicdomain/">
        <cc:permits
           rdf:resource="http://creativecommons.org/ns#Reproduction" />
        <cc:permits
           rdf:resource="http://creativecommons.org/ns#Distribution" />
        <cc:permits
           rdf:resource="http://creativecommons.org/ns#DerivativeWorks" />
      </cc:License>
    </rdf:RDF>
  </metadata>
</svg>
